# Blender v2.66 (sub 1) OBJ File: ''
# www.blender.org
mtllib airhockeytable2.mtl
o table
v -6.940295 2.595516 2.271110
v 7.007250 2.595524 2.271110
v -6.940295 2.595533 -5.140347
v 7.007250 2.595540 -5.140347
v 7.600872 4.687288 1.362727
v 6.175917 4.687288 1.362727
v 7.600872 4.687287 2.787685
v 6.175917 4.687299 -5.560258
v 6.175917 4.687297 -4.135300
v 7.600872 4.687297 -4.135300
v -7.544437 4.687292 -5.560255
v -7.544437 4.687291 -4.135303
v -6.119482 4.687291 -4.135300
v -6.119482 4.687276 1.362727
v -7.544437 4.687276 1.362727
v -6.119482 4.687275 2.787682
v 6.175917 4.687287 2.787685
v 7.600872 4.687299 -5.560255
v -6.119482 4.687292 -5.560255
v -7.544437 4.687275 2.787682
v -6.940295 -1.091413 2.271109
v -6.940295 -1.091403 -5.140347
v 7.007250 -1.091403 -5.140347
v 7.007250 -1.091406 2.271109
v -6.589486 -1.639486 2.315369
v -6.589486 -1.639483 -4.135306
v -6.589486 4.257905 2.315378
v -7.167630 -1.639483 -4.135306
v -7.167630 -1.639486 2.315369
v -7.167630 4.257906 -4.135304
v -7.167630 4.257905 2.315378
v 6.313572 4.527379 -4.135300
v 6.313572 -1.370012 -4.135305
v 6.313572 4.527369 2.315378
v 6.313572 -1.370016 2.315373
v 6.891716 -1.370016 2.315373
v 6.891716 4.527369 2.315378
v 6.891716 4.527379 -4.135300
v -6.119482 -0.294373 -4.550857
v 6.175917 -0.294373 -4.550857
v -6.119482 4.357443 -4.550857
v 6.175917 -0.294373 -5.128997
v -6.119482 -0.294373 -5.128997
v 6.175917 4.357443 -5.128993
v -6.119482 4.357443 -5.128993
v 6.283192 4.502858 1.753044
v 6.283192 -0.148770 1.753043
v -6.012207 4.502851 1.753040
v -6.012207 -0.149140 1.753039
v -6.012207 -0.149147 2.331183
v -6.012207 4.502851 2.331185
v 6.283192 4.502858 2.331185
v 6.175917 -4.637940 -4.135307
v 6.175917 -4.637939 -5.560262
v 7.600875 -4.637940 -4.135307
v 7.600875 -4.637939 -5.560262
v 6.175917 -4.637943 2.787679
v 6.175917 -4.637942 1.362721
v 7.600875 -4.637942 1.362721
v 7.600875 -4.637943 2.787679
v -7.544437 -4.637940 -4.135307
v -7.544437 -4.637939 -5.560262
v -6.119482 -4.637940 -4.135307
v -6.119482 -4.637939 -5.560262
v -7.544437 -4.637943 2.787676
v -7.544437 -4.637942 1.362721
v -6.119482 -4.637942 1.362721
v -6.119482 -4.637943 2.787676
v -6.589486 4.257906 -4.135302
v 6.891716 -1.370012 -4.135305
v 6.175917 4.357443 -4.550857
v 6.283192 -0.148776 2.331183
vt 0.187504 0.914956
vt 0.258757 0.872195
vt 0.225062 1.000000
vt 0.072371 0.445468
vt 0.111430 0.534894
vt 0.039292 0.579351
vt 0.790184 0.000000
vt 0.826838 0.094004
vt 0.750736 0.140904
vt 0.889914 0.493423
vt 0.965010 0.448356
vt 0.925161 0.582700
vt 0.296088 0.957664
vt 0.000000 0.490381
vt 0.713817 0.047393
vt 1.000000 0.538091
vt 0.925657 0.514060
vt 0.263095 0.910653
vt 0.752096 0.072826
vt 0.078828 0.489424
vt 0.882454 0.498715
vt 0.728302 0.108766
vt 0.132554 0.476927
vt 0.295106 0.851179
vt 0.862916 0.507877
vt 0.731130 0.175534
vt 0.931952 0.535934
vt 0.755895 0.160293
vt 0.887372 0.493198
vt 0.802453 0.110908
vt 0.961863 0.518058
vt 0.107107 0.538246
vt 0.187051 0.509620
vt 0.278463 0.930287
vt 0.326548 0.832371
vt 0.302900 0.846562
vt 0.249752 0.947441
vt 0.077979 0.556196
vt 0.709076 0.156785
vt 0.171124 0.488509
vt 0.737594 0.117085
vt 0.157906 0.457951
vt 0.696472 0.125060
vt 0.089957 0.471482
vt 0.722800 0.079633
vt 0.265576 0.895387
vt 0.306899 0.820167
vt 0.891574 0.520355
vt 0.840498 0.499473
vt 0.852683 0.530126
vt 0.905791 0.556322
vt 0.280626 0.929830
vt 0.225212 0.494621
vt 0.196751 0.428409
vt 0.171580 0.527613
vt 0.142989 0.461651
vt 0.360721 0.809861
vt 0.333199 0.745834
vt 0.280058 0.777888
vt 0.307707 0.841677
vt 0.752990 0.169959
vt 0.725837 0.101266
vt 0.697199 0.204278
vt 0.669904 0.135851
vt 0.882216 0.496876
vt 0.855977 0.430495
vt 0.800727 0.463822
vt 0.827106 0.529952
vt 0.772079 0.129624
vt 0.163120 0.524349
vt 0.105598 0.507317
vt 0.319690 0.849709
vn -0.000000 1.000000 0.000000
vn 0.000000 1.000000 0.000001
vn -0.000001 1.000000 0.000002
vn -1.000000 -0.000000 0.000000
vn 0.000000 -0.000000 1.000000
vn 1.000000 0.000000 0.000000
vn 0.000000 0.000000 -1.000000
vn -0.000000 -1.000000 -0.000000
vn 0.000000 -1.000000 -0.000001
vn 0.000000 0.000001 -1.000000
vn 0.000030 -1.000000 -0.000012
vn -0.000001 1.000000 0.000000
vn 0.000000 -0.000001 1.000000
vn 0.000030 -1.000000 -0.000011
vn 0.000002 0.000001 -1.000000
vn -0.000002 -0.000000 1.000000
usemtl table
s off
f 5/1/1 6/2/1 7/3/1
f 8/4/2 9/5/2 10/6/2
f 11/7/2 12/8/2 13/9/2
f 14/10/1 15/11/1 16/12/1
f 6/2/1 17/13/1 7/3/1
f 18/14/2 8/4/2 10/6/2
f 19/15/2 11/7/2 13/9/2
f 15/11/1 20/16/1 16/12/1
f 1/17/3 2/18/3 3/19/3
f 2/18/3 4/20/3 3/19/3
f 21/21/4 1/17/4 22/22/4
f 1/17/5 21/21/5 2/18/5
f 23/23/6 4/20/6 24/24/6
f 22/22/7 3/19/7 23/23/7
f 25/25/6 26/26/6 27/27/6
f 28/28/8 26/26/8 29/29/8
f 28/28/4 29/29/4 30/30/4
f 31/31/1 27/27/1 30/30/1
f 32/32/4 33/33/4 34/34/4
f 35/35/9 33/33/9 36/36/9
f 37/37/6 36/36/6 38/38/6
f 32/32/2 34/34/2 38/38/2
f 39/39/5 40/40/5 41/41/5
f 42/42/8 40/40/8 43/43/8
f 42/42/10 43/43/10 44/44/10
f 45/45/1 41/41/1 44/44/1
f 46/46/7 47/47/7 48/48/7
f 49/49/11 47/47/11 50/50/11
f 51/51/5 50/50/5 52/52/5
f 46/46/12 48/48/12 52/52/12
f 53/53/4 9/5/4 54/54/4
f 55/55/13 10/6/13 53/53/13
f 56/56/6 18/14/6 55/55/6
f 54/54/7 8/4/7 56/56/7
f 17/13/4 6/2/4 57/57/4
f 6/2/10 5/1/10 58/58/10
f 5/1/6 7/3/6 59/59/6
f 7/3/13 17/13/13 60/60/13
f 61/61/4 12/8/4 62/62/4
f 63/63/13 13/9/13 61/61/13
f 64/64/6 19/15/6 63/63/6
f 62/62/10 11/7/10 64/64/10
f 20/16/4 15/11/4 65/65/4
f 15/11/10 14/10/10 66/66/10
f 14/10/6 16/12/6 67/67/6
f 16/12/13 20/16/13 68/68/13
f 1/17/4 3/19/4 22/22/4
f 21/21/5 24/24/5 2/18/5
f 4/20/6 2/18/6 24/24/6
f 3/19/7 4/20/7 23/23/7
f 26/26/6 69/69/6 27/27/6
f 26/26/8 25/25/8 29/29/8
f 29/29/4 31/31/4 30/30/4
f 27/27/1 69/69/1 30/30/1
f 33/33/4 35/35/4 34/34/4
f 33/33/9 70/70/9 36/36/9
f 36/36/6 70/70/6 38/38/6
f 34/34/2 37/37/2 38/38/2
f 40/40/5 71/71/5 41/41/5
f 40/40/8 39/39/8 43/43/8
f 43/43/10 45/45/10 44/44/10
f 41/41/1 71/71/1 44/44/1
f 47/47/7 49/49/7 48/48/7
f 47/47/14 72/72/14 50/50/14
f 50/50/5 72/72/5 52/52/5
f 48/48/12 51/51/12 52/52/12
f 9/5/4 8/4/4 54/54/4
f 10/6/13 9/5/13 53/53/13
f 18/14/6 10/6/6 55/55/6
f 8/4/15 18/14/15 56/56/15
f 6/2/4 58/58/4 57/57/4
f 5/1/10 59/59/10 58/58/10
f 7/3/6 60/60/6 59/59/6
f 17/13/13 57/57/13 60/60/13
f 12/8/4 11/7/4 62/62/4
f 13/9/16 12/8/16 61/61/16
f 19/15/6 13/9/6 63/63/6
f 11/7/10 19/15/10 64/64/10
f 15/11/4 66/66/4 65/65/4
f 14/10/10 67/67/10 66/66/10
f 16/12/6 68/68/6 67/67/6
f 20/16/13 65/65/13 68/68/13
