# Blender v2.69 (sub 0) OBJ File: ''
# www.blender.org
mtllib airhockeytable1.mtl
o table
v -6.940295 -1.091413 2.271109
v -6.940295 2.595517 2.271109
v -6.940295 -1.091404 -5.140347
v 7.007250 2.595524 2.271109
v 7.007250 -1.091404 -5.140347
v 7.007250 2.595539 -5.140347
v 7.007250 -1.091406 2.271109
v -6.940295 2.595532 -5.140347
v -6.589486 -1.639486 2.315369
v -6.589486 -1.639484 -4.135306
v -6.589486 4.257905 2.315377
v -7.167630 -1.639484 -4.135306
v -7.167630 -1.639486 2.315369
v -7.167630 4.257906 -4.135305
v -7.167630 4.257905 2.315377
v 6.313572 4.527378 -4.135301
v 6.313572 -1.370013 -4.135305
v 6.313572 4.527370 2.315377
v 6.313572 -1.370016 2.315373
v 6.891716 -1.370016 2.315373
v 6.891716 4.527370 2.315377
v 6.891716 4.527378 -4.135301
v -6.119482 -0.294374 -4.550857
v 6.175917 -0.294374 -4.550857
v -6.119482 4.357442 -4.550857
v 6.175917 -0.294374 -5.128997
v -6.119482 -0.294374 -5.128997
v 6.175917 4.357442 -5.128993
v -6.119482 4.357442 -5.128993
v 6.283192 4.502858 1.753043
v 6.283192 -0.148770 1.753043
v -6.012207 4.502851 1.753039
v -6.012207 -0.149140 1.753039
v -6.012207 -0.149147 2.331183
v -6.012207 4.502851 2.331184
v 6.283192 4.502858 2.331184
v 6.175917 -4.637941 -4.135306
v 6.175917 4.687297 -4.135301
v 6.175917 -4.637940 -5.560261
v 7.600875 -4.637941 -4.135306
v 7.600872 4.687297 -4.135301
v 7.600875 -4.637940 -5.560261
v 7.600872 4.687298 -5.560256
v 6.175917 4.687298 -5.560259
v 6.175917 4.687288 2.787684
v 6.175917 4.687288 1.362726
v 6.175917 -4.637943 2.787680
v 7.600872 4.687288 1.362726
v 6.175917 -4.637942 1.362722
v 7.600872 4.687288 2.787684
v 7.600875 -4.637942 1.362722
v 7.600875 -4.637943 2.787680
v -7.544437 -4.637941 -4.135306
v -7.544437 4.687290 -4.135304
v -7.544437 -4.637940 -5.560261
v -6.119482 -4.637941 -4.135306
v -6.119482 4.687290 -4.135301
v -6.119482 -4.637940 -5.560261
v -6.119482 4.687291 -5.560256
v -7.544437 4.687291 -5.560256
v -7.544437 4.687276 2.787681
v -7.544437 4.687276 1.362726
v -7.544437 -4.637943 2.787677
v -6.119482 4.687276 1.362726
v -7.544437 -4.637942 1.362722
v -6.119482 4.687276 2.787681
v -6.119482 -4.637942 1.362722
v -6.119482 -4.637943 2.787677
v -6.589486 4.257906 -4.135302
v 6.891716 -1.370013 -4.135305
v 6.175917 4.357442 -4.550857
v 6.283192 -0.148776 2.331183
vt 1.000870 0.992980
vt -0.009760 0.997301
vt 0.998137 0.003836
vt -0.008017 0.001245
vt 0.973591 0.173798
vt 0.885191 0.172232
vt 0.968554 0.016213
vt 0.905794 0.998222
vt 0.901335 0.819465
vt 0.994285 0.821197
vt 0.000000 0.981121
vt 0.007604 0.802818
vt 0.100320 0.804544
vt 0.123329 0.158733
vt 0.035140 0.157171
vt 0.128930 0.001524
vt 0.881261 0.014686
vt 1.000000 1.000000
vt 0.093966 0.982895
vt 0.041843 0.000000
vt 0.161833 0.080092
vt 0.111922 0.066684
vt 0.139258 0.768965
vt 0.898004 0.080509
vt 0.862752 0.782405
vt 0.918850 0.877595
vt 0.847504 0.092164
vt 0.082652 0.861951
vt 0.185212 0.078270
vt 0.167181 0.661722
vt 0.105624 0.054858
vt 0.138023 0.661185
vt 0.157355 0.077780
vt 0.041214 0.791072
vt 0.070790 0.054246
vt 0.907342 0.814907
vt 0.821612 0.678585
vt 0.888349 0.067338
vt 0.810327 0.088461
vt 0.838494 0.088957
vt 0.923667 0.067958
vt 0.944777 0.815604
vt 0.173959 0.728328
vt 0.827937 0.740439
vt 0.104537 0.845821
vt 0.829075 0.798765
vt 0.172199 0.786547
vt 0.898382 0.931985
vt 0.102030 0.917024
vt 0.887646 0.129140
vt 0.823267 0.136262
vt 0.134450 0.115842
vt 0.196035 0.125181
vt 0.197615 0.072364
vt 0.136657 0.052524
vt 0.886045 0.065689
vt 0.781826 0.625196
vt 0.783809 0.748007
vt 0.846885 0.626391
vt 0.849481 0.749224
vt 0.772694 0.059736
vt 0.774508 0.172080
vt 0.837306 0.173192
vt 0.834930 0.060829
vt 0.156002 0.613708
vt 0.152095 0.736301
vt 0.220947 0.614900
vt 0.217650 0.737516
vt 0.173996 0.049222
vt 0.170421 0.161375
vt 0.233112 0.162486
vt 0.236128 0.050313
vt 0.078104 0.791758
vt 0.851109 0.679129
vt 0.896633 0.860622
vt 0.822204 0.083352
vn -0.000000 1.000000 0.000002
vn 0.000000 1.000000 0.000000
vn -0.000000 1.000000 0.000001
vn -1.000000 -0.000000 0.000000
vn 0.000000 -0.000000 1.000000
vn 1.000000 0.000000 0.000000
vn 0.000000 0.000000 -1.000000
vn 0.000000 -1.000000 -0.000000
vn 0.000000 0.000001 -1.000000
vn 0.000030 -1.000000 -0.000012
vn -0.000001 1.000000 0.000000
vn 0.000000 -0.000001 1.000000
vn 0.000001 0.000000 -1.000000
vn -0.000002 -0.000000 1.000000
usemtl table_texture_table_center.jpg
s off
f 2/1/1 4/2/1 8/3/1
f 4/2/1 6/4/1 8/3/1
usemtl table_NONE
f 48/5/2 46/6/2 50/7/2
f 44/8/2 38/9/2 41/10/2
f 60/11/2 54/12/2 57/13/2
f 64/14/2 62/15/2 66/16/2
f 46/6/2 45/17/2 50/7/2
f 43/18/3 44/8/3 41/10/3
f 59/19/2 60/11/2 57/13/2
f 62/15/2 61/20/2 66/16/2
usemtl table
f 1/21/4 2/22/4 3/23/4
f 2/22/5 1/21/5 4/24/5
f 5/25/6 6/26/6 7/27/6
f 3/23/7 8/28/7 5/25/7
f 9/29/6 10/30/6 11/31/6
f 12/32/8 10/30/8 13/33/8
f 12/32/4 13/33/4 14/34/4
f 15/35/2 11/31/2 14/34/2
f 16/36/4 17/37/4 18/38/4
f 19/39/8 17/37/8 20/40/8
f 21/41/6 20/40/6 22/42/6
f 16/36/3 18/38/3 22/42/3
f 23/43/5 24/44/5 25/45/5
f 26/46/8 24/44/8 27/47/8
f 26/46/9 27/47/9 28/48/9
f 29/49/2 25/45/2 28/48/2
f 30/50/7 31/51/7 32/52/7
f 33/53/10 31/51/10 34/54/10
f 35/55/5 34/54/5 36/56/5
f 30/50/11 32/52/11 36/56/11
f 37/57/4 38/9/4 39/58/4
f 40/59/12 41/10/12 37/57/12
f 42/60/6 43/18/6 40/59/6
f 39/58/7 44/8/7 42/60/7
f 45/17/4 46/6/4 47/61/4
f 46/6/7 48/5/7 49/62/7
f 48/5/6 50/7/6 51/63/6
f 50/7/5 45/17/5 52/64/5
f 53/65/4 54/12/4 55/66/4
f 56/67/12 57/13/12 53/65/12
f 58/68/6 59/19/6 56/67/6
f 55/66/7 60/11/7 58/68/7
f 61/20/4 62/15/4 63/69/4
f 62/15/7 64/14/7 65/70/7
f 64/14/6 66/16/6 67/71/6
f 66/16/5 61/20/5 68/72/5
f 2/22/4 8/28/4 3/23/4
f 1/21/5 7/27/5 4/24/5
f 6/26/6 4/24/6 7/27/6
f 8/28/7 6/26/7 5/25/7
f 10/30/6 69/73/6 11/31/6
f 10/30/8 9/29/8 13/33/8
f 13/33/4 15/35/4 14/34/4
f 11/31/2 69/73/2 14/34/2
f 17/37/4 19/39/4 18/38/4
f 17/37/8 70/74/8 20/40/8
f 20/40/6 70/74/6 22/42/6
f 18/38/3 21/41/3 22/42/3
f 24/44/5 71/75/5 25/45/5
f 24/44/8 23/43/8 27/47/8
f 27/47/9 29/49/9 28/48/9
f 25/45/2 71/75/2 28/48/2
f 31/51/7 33/53/7 32/52/7
f 31/51/10 72/76/10 34/54/10
f 34/54/5 72/76/5 36/56/5
f 32/52/11 35/55/11 36/56/11
f 38/9/4 44/8/4 39/58/4
f 41/10/12 38/9/12 37/57/12
f 43/18/6 41/10/6 40/59/6
f 44/8/13 43/18/13 42/60/13
f 46/6/4 49/62/4 47/61/4
f 48/5/7 51/63/7 49/62/7
f 50/7/6 52/64/6 51/63/6
f 45/17/5 47/61/5 52/64/5
f 54/12/4 60/11/4 55/66/4
f 57/13/14 54/12/14 53/65/14
f 59/19/6 57/13/6 56/67/6
f 60/11/7 59/19/7 58/68/7
f 62/15/4 65/70/4 63/69/4
f 64/14/7 67/71/7 65/70/7
f 66/16/6 68/72/6 67/71/6
f 61/20/5 63/69/5 68/72/5
