# Blender v2.69 (sub 0) OBJ File: ''
# www.blender.org
mtllib cylinder1.mtl
o Cylinder
v 0.000000 0.151902 -1.090528
v 0.000000 -0.151902 -1.090528
v 0.212752 0.151902 -1.069574
v 0.212752 -0.151902 -1.069574
v 0.417328 0.151902 -1.007516
v 0.417328 -0.151902 -1.007516
v 0.605866 0.151902 -0.906740
v 0.605866 -0.151902 -0.906740
v 0.771120 0.151902 -0.771120
v 0.771120 -0.151902 -0.771120
v 0.906742 0.151902 -0.605864
v 0.906742 -0.151902 -0.605864
v 1.007516 0.151902 -0.417328
v 1.007516 -0.151902 -0.417328
v 1.069574 0.151902 -0.212752
v 1.069574 -0.151902 -0.212752
v 1.090528 0.151902 0.000000
v 1.090528 -0.151902 -0.000000
v 1.069574 0.151902 0.212752
v 1.069574 -0.151902 0.212752
v 1.007516 0.151902 0.417326
v 1.007516 -0.151902 0.417326
v 0.906742 0.151902 0.605864
v 0.906742 -0.151902 0.605864
v 0.771120 0.151902 0.771120
v 0.771120 -0.151902 0.771120
v 0.605864 0.151902 0.906742
v 0.605864 -0.151902 0.906742
v 0.417326 0.151902 1.007516
v 0.417326 -0.151902 1.007516
v 0.212752 0.151902 1.069574
v 0.212752 -0.151902 1.069574
v 0.000000 0.151902 1.090528
v 0.000000 -0.151902 1.090528
v -0.212752 0.151902 1.069574
v -0.212752 -0.151902 1.069574
v -0.417328 0.151902 1.007516
v -0.417328 -0.151902 1.007516
v -0.605866 0.151902 0.906740
v -0.605866 -0.151902 0.906740
v -0.771120 0.151902 0.771120
v -0.771120 -0.151902 0.771120
v -0.906742 0.151902 0.605864
v -0.906742 -0.151902 0.605864
v -1.007516 0.151902 0.417326
v -1.007516 -0.151902 0.417326
v -1.069574 0.151902 0.212750
v -1.069574 -0.151902 0.212750
v -1.090528 0.151902 -0.000002
v -1.090528 -0.151902 -0.000002
v -1.069574 0.151902 -0.212752
v -1.069574 -0.151902 -0.212752
v -1.007516 0.151902 -0.417328
v -1.007516 -0.151902 -0.417328
v -0.906740 0.151902 -0.605866
v -0.906740 -0.151902 -0.605866
v -0.771118 0.151902 -0.771120
v -0.771118 -0.151902 -0.771120
v -0.605864 0.151902 -0.906742
v -0.605864 -0.151902 -0.906742
v -0.417326 0.151902 -1.007518
v -0.212750 0.151902 -1.069574
v -0.212750 -0.151902 -1.069574
v -0.417326 -0.151902 -1.007518
vt 0.444582 0.998693
vt 0.446670 0.971078
vt 0.542006 1.000000
vt 0.542104 0.972355
vt 0.637857 0.982596
vt 0.635994 0.955294
vt 0.728546 0.947104
vt 0.724828 0.920508
vt 0.810666 0.894815
vt 0.805261 0.869260
vt 0.881099 0.827635
vt 0.874242 0.803424
vt 0.937136 0.748043
vt 0.929118 0.725427
vt 0.976582 0.658996
vt 0.967737 0.638172
vt 0.997842 0.563842
vt 0.988543 0.544941
vt 1.000000 0.466197
vt 0.990639 0.449278
vt 0.982861 0.369815
vt 0.973838 0.354859
vt 0.946986 0.278442
vt 0.938690 0.265355
vt 0.893674 0.195669
vt 0.886472 0.184279
vt 0.824935 0.124777
vt 0.819152 0.114846
vt 0.743410 0.068601
vt 0.739319 0.059829
vt 0.652280 0.029400
vt 0.650083 0.021439
vt 0.555125 0.008758
vt 0.554951 0.001224
vt 0.455784 0.007507
vt 0.457678 0.000000
vt 0.358184 0.025692
vt 0.362109 0.017810
vt 0.266179 0.062568
vt 0.272014 0.053925
vt 0.183379 0.116638
vt 0.190928 0.106881
vt 0.113005 0.185720
vt 0.122002 0.174544
vt 0.057754 0.267050
vt 0.067883 0.254207
vt 0.019706 0.357403
vt 0.030603 0.342715
vt 0.000239 0.453234
vt 0.011517 0.436595
vt 0.000000 0.550822
vt 0.011262 0.532205
vt 0.018887 0.646425
vt 0.029741 0.625876
vt 0.056079 0.736412
vt 0.066150 0.714051
vt 0.110071 0.817406
vt 0.119020 0.793419
vt 0.178753 0.886395
vt 0.186285 0.861026
vt 0.259489 0.940835
vt 0.353260 0.951513
vt 0.349223 0.978729
vt 0.265363 0.914376
vn -0.098017 0.000000 0.995185
vn -0.290286 0.000000 0.956940
vn -0.471398 0.000000 0.881921
vn -0.634392 0.000000 0.773012
vn -0.773011 0.000000 0.634393
vn -0.881922 0.000000 0.471395
vn -0.956940 0.000000 0.290287
vn -0.995185 0.000000 0.098016
vn -0.995185 0.000000 -0.098016
vn -0.956939 0.000000 -0.290289
vn -0.881924 0.000000 -0.471391
vn -0.773011 0.000000 -0.634393
vn -0.634393 0.000000 -0.773011
vn -0.471390 0.000000 -0.881925
vn -0.290290 0.000000 -0.956939
vn -0.098016 0.000000 -0.995185
vn 0.098017 0.000000 -0.995185
vn 0.290286 0.000000 -0.956940
vn 0.471397 0.000000 -0.881921
vn 0.634392 0.000000 -0.773012
vn 0.773011 0.000000 -0.634393
vn 0.881924 0.000000 -0.471391
vn 0.956940 0.000000 -0.290287
vn 0.995185 0.000000 -0.098016
vn 0.995185 -0.000000 0.098017
vn 0.956940 0.000000 0.290287
vn 0.881921 -0.000000 0.471398
vn 0.773007 0.000000 0.634398
vn 0.634397 0.000000 0.773007
vn 0.471400 0.000000 0.881920
vn -0.000000 1.000000 0.000000
vn 0.098017 0.000000 0.995185
vn 0.290279 0.000000 0.956942
vn 0.000000 -1.000000 0.000000
vn -0.098016 0.000000 0.995185
vn -0.290287 0.000000 0.956940
vn -0.471398 0.000000 0.881920
vn -0.956939 -0.000000 -0.290290
vn -0.471392 0.000000 -0.881924
vn -0.290289 0.000000 -0.956939
vn -0.098017 0.000000 -0.995185
vn 0.098016 0.000000 -0.995185
vn 0.290287 0.000000 -0.956940
vn 0.471400 0.000000 -0.881920
vn 0.881920 0.000000 0.471398
vn 0.471397 0.000000 0.881921
vn -0.000000 1.000000 -0.000001
vn 0.000000 1.000000 0.000001
vn 0.098018 0.000000 0.995185
vn 0.290277 0.000000 0.956943
vn 0.000000 -1.000000 -0.000001
vn 0.000000 -1.000000 0.000001
usemtl None
s off
f 1/1/1 2/2/1 3/3/1
f 3/3/2 4/4/2 5/5/2
f 5/5/3 6/6/3 7/7/3
f 7/7/4 8/8/4 9/9/4
f 9/9/5 10/10/5 11/11/5
f 11/11/6 12/12/6 13/13/6
f 13/13/7 14/14/7 15/15/7
f 15/15/8 16/16/8 17/17/8
f 17/17/9 18/18/9 19/19/9
f 19/19/10 20/20/10 21/21/10
f 21/21/11 22/22/11 23/23/11
f 23/23/12 24/24/12 25/25/12
f 25/25/13 26/26/13 27/27/13
f 27/27/14 28/28/14 29/29/14
f 29/29/15 30/30/15 31/31/15
f 31/31/16 32/32/16 33/33/16
f 33/33/17 34/34/17 35/35/17
f 35/35/18 36/36/18 37/37/18
f 37/37/19 38/38/19 39/39/19
f 39/39/20 40/40/20 41/41/20
f 41/41/21 42/42/21 43/43/21
f 43/43/22 44/44/22 45/45/22
f 45/45/23 46/46/23 47/47/23
f 47/47/24 48/48/24 49/49/24
f 49/49/25 50/50/25 51/51/25
f 51/51/26 52/52/26 53/53/26
f 53/53/27 54/54/27 55/55/27
f 55/55/28 56/56/28 57/57/28
f 57/57/29 58/58/29 59/59/29
f 59/59/30 60/60/30 61/61/30
f 4/4/31 2/2/31 6/6/31
f 63/62/32 1/1/32 62/63/32
f 61/61/33 64/64/33 62/63/33
f 1/1/34 3/3/34 62/63/34
f 2/2/35 4/4/35 3/3/35
f 4/4/36 6/6/36 5/5/36
f 6/6/37 8/8/37 7/7/37
f 8/8/4 10/10/4 9/9/4
f 10/10/5 12/12/5 11/11/5
f 12/12/6 14/14/6 13/13/6
f 14/14/7 16/16/7 15/15/7
f 16/16/8 18/18/8 17/17/8
f 18/18/9 20/20/9 19/19/9
f 20/20/38 22/22/38 21/21/38
f 22/22/11 24/24/11 23/23/11
f 24/24/12 26/26/12 25/25/12
f 26/26/13 28/28/13 27/27/13
f 28/28/39 30/30/39 29/29/39
f 30/30/40 32/32/40 31/31/40
f 32/32/41 34/34/41 33/33/41
f 34/34/42 36/36/42 35/35/42
f 36/36/43 38/38/43 37/37/43
f 38/38/44 40/40/44 39/39/44
f 40/40/20 42/42/20 41/41/20
f 42/42/21 44/44/21 43/43/21
f 44/44/22 46/46/22 45/45/22
f 46/46/23 48/48/23 47/47/23
f 48/48/24 50/50/24 49/49/24
f 50/50/25 52/52/25 51/51/25
f 52/52/26 54/54/26 53/53/26
f 54/54/45 56/56/45 55/55/45
f 56/56/28 58/58/28 57/57/28
f 58/58/29 60/60/29 59/59/29
f 60/60/46 64/64/46 61/61/46
f 2/2/31 63/62/31 6/6/31
f 63/62/47 64/64/47 6/6/47
f 64/64/31 60/60/31 6/6/31
f 60/60/48 58/58/48 6/6/48
f 58/58/31 56/56/31 6/6/31
f 56/56/31 54/54/31 6/6/31
f 54/54/31 52/52/31 6/6/31
f 52/52/31 50/50/31 6/6/31
f 50/50/31 48/48/31 6/6/31
f 48/48/31 46/46/31 6/6/31
f 46/46/31 44/44/31 6/6/31
f 42/42/48 40/40/48 38/38/48
f 44/44/31 42/42/31 38/38/31
f 6/6/31 44/44/31 38/38/31
f 8/8/48 6/6/48 10/10/48
f 6/6/31 38/38/31 10/10/31
f 38/38/48 36/36/48 34/34/48
f 10/10/31 38/38/31 12/12/31
f 38/38/31 34/34/31 12/12/31
f 34/34/31 32/32/31 12/12/31
f 32/32/31 30/30/31 12/12/31
f 30/30/31 28/28/31 12/12/31
f 28/28/31 26/26/31 12/12/31
f 26/26/31 24/24/31 12/12/31
f 24/24/31 22/22/31 12/12/31
f 22/22/31 20/20/31 12/12/31
f 20/20/31 18/18/31 12/12/31
f 18/18/31 16/16/31 12/12/31
f 16/16/31 14/14/31 12/12/31
f 2/2/49 1/1/49 63/62/49
f 64/64/50 63/62/50 62/63/50
f 3/3/34 5/5/34 62/63/34
f 5/5/34 7/7/34 62/63/34
f 7/7/34 9/9/34 62/63/34
f 9/9/34 11/11/34 62/63/34
f 11/11/34 13/13/34 62/63/34
f 13/13/34 15/15/34 62/63/34
f 15/15/34 17/17/34 62/63/34
f 17/17/34 19/19/34 62/63/34
f 19/19/34 21/21/34 62/63/34
f 21/21/34 23/23/34 62/63/34
f 23/23/34 25/25/34 62/63/34
f 25/25/34 27/27/34 62/63/34
f 37/37/51 33/33/51 35/35/51
f 41/41/51 37/37/51 39/39/51
f 41/41/34 33/33/34 37/37/34
f 45/45/34 41/41/34 43/43/34
f 45/45/34 33/33/34 41/41/34
f 49/49/34 45/45/34 47/47/34
f 49/49/34 33/33/34 45/45/34
f 53/53/34 49/49/34 51/51/34
f 53/53/34 33/33/34 49/49/34
f 53/53/34 31/31/34 33/33/34
f 29/29/34 31/31/34 53/53/34
f 27/27/34 29/29/34 53/53/34
f 27/27/34 53/53/34 55/55/34
f 59/59/52 55/55/52 57/57/52
f 27/27/34 55/55/34 59/59/34
f 62/63/34 27/27/34 61/61/34
f 27/27/34 59/59/34 61/61/34
